<svg width="1331" height="333" viewBox="0 0 1331 333" fill="none" xmlns="http://www.w3.org/2000/svg">
    <path d="M532.729 236.116C532.327 233.94 533.764 231.85 535.939 231.447L588.009 221.806C590.184 221.403 592.275 222.84 592.677 225.016L605.463 294.066C605.882 296.33 603.804 298.261 601.577 297.678L573.781 290.391L550.437 307.147C548.566 308.49 545.934 307.431 545.515 305.167L532.729 236.116Z" fill="#BBCEFF"/>
    <path d="M564.33 244.969C564.463 243.963 565.805 243.715 566.289 244.607L570.846 253.002C571.062 253.401 571.511 253.615 571.957 253.532L581.35 251.793C582.348 251.608 582.999 252.809 582.301 253.545L575.724 260.472C575.412 260.802 575.347 261.295 575.563 261.694L580.12 270.089C580.604 270.981 579.664 271.971 578.748 271.534L570.127 267.42C569.717 267.225 569.228 267.315 568.916 267.645L562.339 274.572C561.64 275.309 560.408 274.72 560.541 273.714L561.789 264.244C561.848 263.794 561.611 263.357 561.202 263.162L552.581 259.048C551.665 258.611 551.843 257.257 552.841 257.072L562.234 255.333C562.68 255.25 563.022 254.89 563.082 254.44L564.33 244.969Z" fill="white"/>
    <path fill-rule="evenodd" clip-rule="evenodd" d="M1062.66 43.1947C1065.53 44.245 1067.01 47.4265 1065.96 50.3009L1052.78 86.3583C1051.73 89.2327 1048.55 90.7113 1045.68 89.661L1017.41 79.3315L994.232 87.2419L999.672 72.8502L990.231 69.4003C987.357 68.35 985.878 65.1685 986.928 62.2941L1000.1 26.2367C1001.15 23.3623 1004.34 21.8837 1007.21 22.934L1062.66 43.1947Z" fill="#BBCEFF"/>
    <path d="M1039.76 51.6511C1039.41 50.8926 1038.91 50.2109 1038.29 49.6449C1037.68 49.079 1036.95 48.6399 1036.17 48.3527C1035.38 48.0655 1034.55 47.9358 1033.71 47.9712C1032.88 48.0065 1032.06 48.206 1031.3 48.5585L1029.72 49.2894L1028.99 47.7158C1028.28 46.1842 1026.99 44.9979 1025.4 44.418C1023.81 43.838 1022.06 43.9118 1020.53 44.6232C1019 45.3346 1017.81 46.6252 1017.23 48.2112C1016.65 49.7973 1016.72 51.5487 1017.44 53.0803L1018.17 54.6539L1023.54 66.2035L1035.1 60.839L1036.67 60.1081C1037.43 59.756 1038.11 59.258 1038.68 58.6423C1039.24 58.0267 1039.68 57.3056 1039.97 56.5203C1040.26 55.7349 1040.38 54.9007 1040.35 54.0652C1040.31 53.2297 1040.11 52.4094 1039.76 51.6511Z" fill="white"/>
    <path fill-rule="evenodd" clip-rule="evenodd" d="M363.439 8.10821C365.005 8.27389 366.14 9.67737 365.974 11.243L363.19 37.5477C363.025 39.1133 361.621 40.2482 360.056 40.0825L354.488 39.4933C353.887 39.4297 353.349 39.8651 353.285 40.4657L352.449 48.3649C352.42 48.6413 352.074 48.748 351.894 48.536L343.213 38.3001L320.008 35.8445C318.443 35.6789 317.308 34.2754 317.474 32.7098L320.257 6.40502C320.423 4.83941 321.826 3.70455 323.392 3.87023L363.439 8.10821Z" fill="white"/>
    <path fill-rule="evenodd" clip-rule="evenodd" d="M289.073 13.9248C287.038 13.7094 285.213 15.1849 284.997 17.2204L281.378 51.42C281.163 53.4555 282.638 55.2802 284.674 55.4956L291.913 56.2617C292.694 56.3443 293.26 57.0443 293.177 57.8251L292.067 68.3155C292.038 68.5919 292.354 68.7686 292.574 68.599L306.572 57.8129L336.741 61.0055C338.776 61.2209 340.601 59.7455 340.816 57.71L344.435 23.5103C344.651 21.4748 343.175 19.6501 341.14 19.4347L289.073 13.9248Z" fill="#BBCEFF"/>
    <ellipse cx="299.956" cy="35.7201" rx="3.7423" ry="3.81568" transform="rotate(6.04081 299.956 35.7201)" fill="white"/>
    <ellipse cx="312.871" cy="37.0846" rx="3.81568" ry="3.81568" transform="rotate(6.04081 312.871 37.0846)" fill="white"/>
    <ellipse cx="325.786" cy="38.4505" rx="3.7423" ry="3.81568" transform="rotate(6.04081 325.786 38.4505)" fill="white"/>
    <path fill-rule="evenodd" clip-rule="evenodd" d="M1311.04 243.101C1312.16 242.702 1313.39 243.288 1313.79 244.409L1320.49 263.244C1320.89 264.365 1320.3 265.597 1319.18 265.995L1315.14 267.433C1314.74 267.575 1314.53 268.014 1314.68 268.413L1316.72 274.163C1316.79 274.346 1316.6 274.519 1316.42 274.439L1307.12 270.285L1290.51 276.194C1289.39 276.593 1288.16 276.007 1287.76 274.886L1281.06 256.051C1280.66 254.93 1281.25 253.698 1282.37 253.3L1311.04 243.101Z" fill="white"/>
    <path fill-rule="evenodd" clip-rule="evenodd" d="M1262.27 271.366C1260.81 271.884 1260.05 273.486 1260.57 274.943L1269.27 299.431C1269.79 300.888 1271.39 301.65 1272.85 301.131L1278.11 299.262C1278.63 299.077 1279.2 299.348 1279.38 299.867L1282.09 307.489C1282.16 307.673 1282.41 307.689 1282.5 307.515L1288.53 295.555L1310.13 287.872C1311.59 287.354 1312.35 285.752 1311.83 284.294L1303.12 259.807C1302.61 258.349 1301 257.588 1299.55 258.106L1262.27 271.366Z" fill="#BBCEFF"/>
    <ellipse cx="1276.8" cy="282.662" rx="2.82785" ry="2.8833" transform="rotate(-19.5786 1276.8 282.662)" fill="white"/>
    <circle cx="1286.05" cy="279.371" r="2.8833" transform="rotate(-19.5786 1286.05 279.371)" fill="white"/>
    <ellipse cx="1295.3" cy="276.081" rx="2.82785" ry="2.8833" transform="rotate(-19.5786 1295.3 276.081)" fill="white"/>
    <circle cx="1055.01" cy="202.732" r="39.464" transform="rotate(-167.12 1055.01 202.732)" fill="#BBCEFF"/>
    <path fill-rule="evenodd" clip-rule="evenodd" d="M1072.61 190.315C1073.87 190.448 1074.79 191.581 1074.65 192.844L1072.41 214.069C1072.28 215.332 1071.14 216.248 1069.88 216.114L1065.58 215.659C1064.99 215.597 1064.46 216.025 1064.4 216.615L1063.76 222.668C1063.73 222.94 1063.39 223.044 1063.21 222.836L1056.29 214.676L1037.57 212.695C1036.3 212.561 1035.39 211.429 1035.52 210.165L1037.77 188.94C1037.9 187.677 1039.03 186.762 1040.3 186.895L1072.61 190.315Z" fill="white"/>
    <circle cx="296.336" cy="161.089" r="8.92158" transform="rotate(-90 296.336 161.089)" fill="#BBCEFF"/>
    <ellipse cx="933.039" cy="227.629" rx="7.26676" ry="7.26676" transform="rotate(-90 933.039 227.629)" fill="#BBCEFF"/>
    <ellipse cx="1252.68" cy="182.676" rx="5.57476" ry="5.57476" transform="rotate(-148.195 1252.68 182.676)" fill="#BBCEFF"/>
    <ellipse cx="268.409" cy="287.44" rx="6.70764" ry="6.70764" transform="rotate(-90 268.409 287.44)" fill="#BBCEFF"/>
    <ellipse cx="55.8008" cy="131.247" rx="6.70764" ry="6.70764" transform="rotate(-108.871 55.8008 131.247)" fill="#BBCEFF"/>
    <ellipse cx="6.14866" cy="6.14866" rx="6.14866" ry="6.14866" transform="matrix(-4.37114e-08 -1 -1 4.37114e-08 1127.73 309.799)" fill="#BBCEFF"/>
    <circle cx="94.1799" cy="169.286" r="12.6699" transform="rotate(-167.066 94.1799 169.286)" fill="#BBCEFF"/>
    <ellipse cx="1301.52" cy="153.395" rx="6.81804" ry="6.81805" transform="rotate(-90 1301.52 153.395)" fill="#BBCEFF"/>
    <circle cx="41.719" cy="256.901" r="31.9566" transform="rotate(-22.3866 41.719 256.901)" fill="#BBCEFF"/>
    <path d="M55.7109 249.697C56.9483 249.863 57.5425 251.305 56.7807 252.294L41.1386 272.596C40.3768 273.585 38.8301 273.378 38.3547 272.224L28.5938 248.527C28.1184 247.372 29.0708 246.136 30.3081 246.302L55.7109 249.697Z" fill="white"/>
    <path d="M957.257 274.61L903.917 289.242C902.74 289.565 902.048 290.781 902.371 291.958L912.87 330.231C913.192 331.408 914.408 332.101 915.585 331.778L968.926 317.145C970.103 316.823 970.795 315.607 970.472 314.43L959.973 276.156C959.65 274.979 958.434 274.287 957.257 274.61Z" fill="#BBCEFF"/>
    <path d="M902.371 291.958C902.048 290.781 902.74 289.565 903.917 289.242L957.258 274.61C958.434 274.287 959.65 274.979 959.973 276.156L960.996 279.886L903.394 295.687L902.371 291.958Z" fill="white"/>
    <path d="M907.143 292.653C907.731 292.492 908.077 291.884 907.915 291.295C907.754 290.707 907.146 290.361 906.558 290.522C905.97 290.683 905.624 291.291 905.785 291.88C905.947 292.468 906.554 292.814 907.143 292.653Z" fill="#E4ECFF"/>
    <path d="M910.427 291.753C911.015 291.591 911.361 290.983 911.199 290.395C911.038 289.806 910.43 289.46 909.842 289.621C909.254 289.783 908.908 290.391 909.069 290.979C909.231 291.568 909.838 291.914 910.427 291.753Z" fill="#E4ECFF"/>
    <path d="M913.711 290.851C914.299 290.69 914.645 290.082 914.483 289.494C914.322 288.905 913.714 288.559 913.126 288.72C912.538 288.881 912.192 289.489 912.353 290.078C912.515 290.666 913.122 291.013 913.711 290.851Z" fill="#E4ECFF"/>
    <path d="M949.701 279.069L918.194 287.712C917.801 287.82 917.571 288.225 917.678 288.618C917.786 289.01 918.191 289.241 918.583 289.133L950.091 280.49C950.484 280.382 950.714 279.977 950.607 279.585C950.499 279.192 950.094 278.962 949.701 279.069Z" fill="#E4ECFF"/>
    <path d="M950.919 302.988C951.624 305.56 951.605 308.276 950.863 310.836C950.122 313.397 948.688 315.702 946.719 317.498C944.749 319.293 942.321 320.509 939.704 321.01C937.086 321.511 934.382 321.278 931.887 320.337C929.394 319.396 927.208 317.784 925.574 315.678C923.938 313.572 922.917 311.055 922.622 308.406C922.329 305.756 922.772 303.076 923.904 300.663C925.037 298.25 926.815 296.198 929.041 294.733L936.984 306.811L950.919 302.988Z" fill="#E4ECFF"/>
    <path d="M930.098 292.74C932.002 291.486 934.177 290.702 936.443 290.45C938.71 290.198 941.004 290.487 943.137 291.292C945.271 292.097 947.185 293.396 948.721 295.083C950.257 296.769 951.372 298.796 951.975 300.996L938.041 304.818L930.098 292.74Z" fill="white"/>
    <path d="M197.85 261.315C220.963 263.864 241.766 247.194 244.315 224.081C246.864 200.968 230.194 180.165 207.081 177.616C183.968 175.066 163.165 191.737 160.616 214.85C158.066 237.963 174.737 258.766 197.85 261.315Z" fill="#BBCEFF"/>
    <path fill-rule="evenodd" clip-rule="evenodd" d="M183.43 205.009C183.468 204.668 183.775 204.423 184.115 204.46L223.645 208.82C223.986 208.857 224.231 209.164 224.194 209.505L221.605 232.977C221.567 233.318 221.261 233.564 220.92 233.526L181.39 229.167C181.05 229.129 180.804 228.822 180.841 228.482L183.43 205.009ZM184.524 200.758C182.138 200.495 179.991 202.216 179.728 204.601L177.14 228.073C176.876 230.459 178.597 232.605 180.982 232.869L194.208 234.327L193.731 238.652L207.318 240.151L207.795 235.826L220.512 237.228C222.897 237.491 225.044 235.771 225.307 233.386L227.896 209.913C228.159 207.528 226.438 205.381 224.053 205.118L184.524 200.758Z" fill="white"/>
    <path d="M1220.66 91.7902L1142.63 71.3434C1141.43 71.0286 1140.2 71.7472 1139.89 72.9483L1123.93 133.845C1123.61 135.047 1124.33 136.275 1125.53 136.59L1203.56 157.037C1204.76 157.352 1205.99 156.633 1206.3 155.432L1222.26 94.535C1222.58 93.3338 1221.86 92.1049 1220.66 91.7902Z" fill="white"/>
    <path d="M1217.07 94.1782L1144.54 75.1711C1143.55 74.9135 1142.55 75.5016 1142.29 76.4846L1129.27 126.173C1129.01 127.156 1129.6 128.162 1130.58 128.42L1203.11 147.427C1204.1 147.684 1205.1 147.096 1205.36 146.113L1218.38 96.4246C1218.64 95.4416 1218.05 94.4359 1217.07 94.1782Z" fill="#E4ECFF"/>
    <path d="M1149.52 94.0032C1152.69 94.8351 1155.94 92.9361 1156.77 89.7619C1157.6 86.5876 1155.71 83.3399 1152.53 82.5081C1149.36 81.6763 1146.11 83.5752 1145.28 86.7495C1144.45 89.9238 1146.34 93.1714 1149.52 94.0032Z" fill="#BBCEFF"/>
    <path d="M1154.35 88.8536C1154.52 89.0194 1154.44 89.3023 1154.22 89.3656L1148.76 90.8939C1148.54 90.9578 1148.32 90.75 1148.38 90.5208L1149.83 84.987C1149.89 84.7579 1150.18 84.6804 1150.35 84.848L1154.35 88.8536Z" fill="white"/>
    <mask id="mask0_2653_1755" style="mask-type:alpha" maskUnits="userSpaceOnUse" x="1112" y="67" width="123" height="85">
        <rect x="1126.67" y="67.7851" width="111.214" height="57.6803" transform="rotate(14.6845 1126.67 67.7851)" fill="#0391FA"/>
    </mask>
    <g mask="url(#mask0_2653_1755)">
        <path d="M1162.58 193.721L1143.64 188.757C1136.16 186.798 1131.69 179.152 1133.65 171.676L1143.09 135.665C1145.05 128.19 1150.68 124.978 1160.17 125.678L1171.47 123.759L1178.89 131.257C1187.41 135.287 1191.29 139.371 1189.33 146.846L1179.66 183.736C1177.7 191.211 1170.06 195.682 1162.58 193.723L1162.58 193.721Z" fill="#BBCEFF"/>
        <path d="M1176.9 118.281C1177.53 115.866 1176.09 113.395 1173.67 112.762C1171.26 112.129 1168.79 113.574 1168.16 115.989L1165.66 125.507C1165.03 127.922 1166.47 130.393 1168.89 131.026C1171.3 131.659 1173.77 130.214 1174.41 127.799L1176.9 118.281Z" fill="#BBCEFF"/>
        <path d="M1176.77 118.798L1168.02 116.506L1166.9 120.763C1167.36 120.973 1167.84 121.145 1168.33 121.274C1171.1 121.999 1174 121.298 1176.57 119.544L1176.77 118.8L1176.77 118.798Z" fill="#BBCEFF"/>
        <path d="M1179.97 96.0531L1176.64 95.1814C1172.43 94.0788 1168.13 96.5959 1167.02 100.804L1164.66 109.827C1163.56 114.034 1166.07 118.339 1170.28 119.442L1173.61 120.313C1177.82 121.416 1182.12 118.899 1183.22 114.691L1185.59 105.668C1186.69 101.461 1184.17 97.1557 1179.97 96.0531Z" fill="#BBCEFF"/>
        <path d="M1165.8 103.243C1165.8 103.243 1168.37 103.99 1170.54 101.566C1173.47 108.663 1187.01 109.109 1187.01 109.109C1187.01 109.109 1188.94 101.596 1187.17 97.7908C1185.47 94.1554 1183.35 91.8993 1179.43 91.0305C1175.65 90.192 1172.83 91.1221 1169.86 93.6061C1167.41 95.6577 1165.5 100.059 1165.8 103.243Z" fill="white"/>
        <circle cx="1175.21" cy="90.801" r="5.20385" transform="rotate(14.6845 1175.21 90.801)" fill="white"/>
    </g>
    <g opacity="0.3">
        <path d="M1204.21 150.711L1136.38 132.936L1136.03 134.271L1203.86 152.046L1204.21 150.711Z" fill="white"/>
    </g>
    <path d="M1172.24 142.327L1128.74 130.926C1128.36 130.827 1127.98 131.053 1127.88 131.43C1127.78 131.806 1128 132.192 1128.38 132.291L1171.89 143.691C1172.26 143.79 1172.65 143.565 1172.75 143.188C1172.85 142.811 1172.62 142.425 1172.24 142.327Z" fill="#BBCEFF"/>
    <path d="M195.307 46.7569L116.903 62.974C114.767 63.4158 113.394 65.5052 113.836 67.641L125.472 123.899C125.914 126.034 128.003 127.408 130.139 126.966L208.543 110.749C210.679 110.307 212.052 108.218 211.61 106.082L199.974 49.8242C199.532 47.6884 197.443 46.3152 195.307 46.7569Z" fill="#E4ECFF" stroke="white" stroke-width="1.5"/>
    <path d="M114.57 67.4891C114.212 65.7589 115.325 64.0663 117.054 63.7086L195.46 47.4913C197.189 47.1335 198.882 48.2459 199.24 49.9761L200.374 55.4583L115.704 72.9713L114.57 67.4891Z" fill="white"/>
    <path d="M121.4 68.9334C122.264 68.7546 122.82 67.9083 122.641 67.0433C122.462 66.1782 121.616 65.6219 120.752 65.8007C119.887 65.9796 119.331 66.8258 119.51 67.6909C119.689 68.556 120.535 69.1123 121.4 68.9334Z" fill="#E4ECFF"/>
    <path d="M126.226 67.9354C127.091 67.7566 127.647 66.9103 127.468 66.0453C127.289 65.1802 126.443 64.6239 125.578 64.8027C124.714 64.9816 124.158 65.8278 124.337 66.6929C124.516 67.558 125.362 68.1143 126.226 67.9354Z" fill="#E4ECFF"/>
    <path d="M131.054 66.9366C131.918 66.7577 132.474 65.9115 132.295 65.0464C132.116 64.1813 131.27 63.625 130.406 63.8039C129.541 63.9827 128.985 64.829 129.164 65.6941C129.343 66.5591 130.189 67.1154 131.054 66.9366Z" fill="#E4ECFF"/>
    <path d="M184.132 53.2364L137.82 62.8158C137.243 62.935 136.872 63.4993 136.991 64.076C137.111 64.6527 137.675 65.0235 138.251 64.9042L184.564 55.3249C185.141 55.2056 185.512 54.6414 185.393 54.0647C185.273 53.488 184.709 53.1171 184.132 53.2364Z" fill="#E4ECFF"/>
    <mask id="mask1_2653_1755" style="mask-type:alpha" maskUnits="userSpaceOnUse" x="118" y="56" width="89" height="70">
        <rect width="79.0291" height="54.9768" transform="matrix(-0.981985 0.188961 0.188961 0.981985 196.588 56.4165)" fill="#91B1FF"/>
    </mask>
    <g mask="url(#mask1_2653_1755)">
        <path d="M170.358 103.33L160.699 105.189L159.077 92.674L167.219 91.1073L170.358 103.33Z" fill="#BBCEFF"/>
        <path d="M152.474 85.5589L152.297 85.5929C151.055 85.8319 150.243 87.032 150.482 88.2739L150.55 88.6301C150.789 89.8719 151.989 90.6847 153.231 90.4458L153.408 90.4118L152.474 85.562L152.474 85.5589Z" fill="#BBCEFF"/>
        <path opacity="0.25" d="M159.587 97.2708C162.267 99.2065 169.08 97.8955 169.08 97.8955L168.293 95.3071L159.587 97.2708Z" fill="#BBCEFF"/>
        <path d="M165.804 96.7227L162.472 97.3639C158.318 98.1633 154.302 95.4436 153.502 91.2892L151.991 83.4327C151.191 79.2783 153.911 75.2625 158.065 74.4631L161.397 73.8219C165.552 73.0225 169.568 75.7422 170.367 79.8965L171.879 87.7531C172.678 91.9075 169.958 95.9233 165.804 96.7227Z" fill="#BBCEFF"/>
        <path d="M150.204 107.142C151.954 106.176 159.786 101.166 159.934 101.064L159.772 98.5897C159.772 98.5897 160.336 100.032 164.575 99.1653C168.394 98.3823 168.821 96.8485 168.821 96.8485L169.589 99.2056C169.765 99.2489 176.972 99.2968 180.219 100.35C185.059 101.921 191.985 115.553 192.273 117.049C192.623 118.87 177.483 128.411 170.607 129.747C170.561 129.756 170.514 129.764 170.465 129.774C170.418 129.783 170.372 129.792 170.322 129.801C163.439 131.113 147.315 133.37 146.965 131.552C146.678 130.056 144.513 110.287 150.204 107.142Z" fill="#BBCEFF"/>
        <path d="M164.861 72.52C166.34 72.9905 167.373 73.3194 167.906 72.3702C168.792 70.7914 170.066 72.39 169.083 74.8181C169.654 74.5164 170.146 74.3259 170.478 74.4267C171.684 74.7921 171.386 76.3111 169.905 77.6345C171.286 78.1872 172.395 78.9336 172.162 79.8727C171.953 80.7125 170.494 80.605 168.419 80.4521C164.964 80.1975 159.802 79.8172 155.855 83.4673C155.008 84.5524 154.702 85.8666 154.854 87.0142C154.916 87.4909 155.003 87.8964 155.077 88.2432C155.289 89.2398 155.398 89.7519 154.552 90.08C153.412 90.5222 153.073 89.919 152.846 88.7373C152.466 86.7632 151.744 86.3872 151.245 86.0631C151.235 86.0567 151.254 86.0696 151.245 86.0631C149.525 83.3272 149.873 76.9719 154.962 73.5576C159.197 70.7175 162.566 71.7895 164.861 72.52Z" fill="white"/>
        <path fill-rule="evenodd" clip-rule="evenodd" d="M164.281 90.3077C163.03 91.5764 158.32 91.8273 159.721 91.1397C160.528 90.7435 160.987 90.1778 161.395 89.6756C161.818 89.1546 162.185 88.702 162.828 88.5783C163.327 88.4821 163.694 88.5142 163.958 88.6278C164.162 88.4243 164.49 88.2587 164.989 88.1626C165.632 88.0389 166.141 88.3228 166.727 88.6497C167.292 88.9647 167.928 89.3196 168.825 89.388C170.381 89.5067 165.914 91.0217 164.281 90.3077Z" fill="white"/>
    </g>
    <ellipse cx="396.503" cy="260.503" rx="24.9942" ry="24.9942" transform="rotate(-41.4661 396.503 260.503)" fill="#BBCEFF"/>
    <path fill-rule="evenodd" clip-rule="evenodd" d="M404.891 251.488L404.989 251.454C405.291 251.35 405.62 251.51 405.724 251.811L409.124 261.64C409.228 261.942 409.068 262.271 408.767 262.375L408.669 262.409C408.382 262.507 408.068 262.488 407.795 262.357L403.811 260.421L404.944 263.697C405.362 264.904 404.722 266.22 403.516 266.637L390.41 271.17C389.204 271.587 387.887 270.948 387.47 269.741L383.693 258.82C383.275 257.614 383.915 256.298 385.121 255.88L398.227 251.347C399.433 250.93 400.75 251.57 401.167 252.776L402.3 256.052L404.236 252.069C404.37 251.797 404.605 251.588 404.891 251.488ZM388.265 261.435C388.384 261.778 388.725 261.971 389.026 261.866L390.118 261.489C390.42 261.384 390.568 261.022 390.45 260.679L390.123 259.736C390.005 259.393 389.664 259.2 389.363 259.304L388.271 259.682C387.969 259.787 387.821 260.149 387.939 260.492L388.265 261.435Z" fill="white"/>
    <circle cx="1161.19" cy="271.092" r="20.5137" transform="rotate(-4.94817 1161.19 271.092)" fill="#BBCEFF"/>
    <path fill-rule="evenodd" clip-rule="evenodd" d="M1171.12 269.242L1171.21 269.268C1171.46 269.346 1171.59 269.612 1171.52 269.862L1168.96 278.006C1168.88 278.256 1168.61 278.395 1168.36 278.316L1168.28 278.291C1168.05 278.215 1167.85 278.049 1167.73 277.829L1166.05 274.607L1165.2 277.322C1164.88 278.321 1163.82 278.877 1162.82 278.563L1151.96 275.152C1150.96 274.838 1150.4 273.773 1150.72 272.774L1153.56 263.725C1153.88 262.726 1154.94 262.17 1155.94 262.484L1166.8 265.895C1167.8 266.209 1168.35 267.273 1168.04 268.273L1167.19 270.987L1170.41 269.306C1170.63 269.191 1170.89 269.168 1171.12 269.242ZM1155.3 267.683C1155.21 267.967 1155.34 268.261 1155.59 268.339L1156.5 268.624C1156.75 268.702 1157.02 268.536 1157.11 268.252L1157.36 267.47C1157.44 267.186 1157.31 266.892 1157.06 266.814L1156.16 266.53C1155.91 266.451 1155.63 266.618 1155.55 266.902L1155.3 267.683Z" fill="white"/>
    <path d="M785.04 241.126L701.574 220.513C699.992 220.123 698.393 221.088 698.002 222.67L683.881 279.851C683.491 281.432 684.456 283.031 686.038 283.422L769.505 304.034C771.086 304.425 772.685 303.459 773.076 301.877L787.197 244.697C787.587 243.115 786.622 241.516 785.04 241.126Z" fill="#E4ECFF" stroke="white" stroke-width="1.68074"/>
    <path d="M752.881 274.162C750.347 284.423 743.711 278.038 733.787 275.587C723.862 273.136 714.408 275.548 716.942 265.287C733.061 266.476 716.511 235.996 742.121 241.838C755.006 244.776 755.415 263.902 752.881 274.162Z" fill="white"/>
    <mask id="mask2_2653_1755" style="mask-type:alpha" maskUnits="userSpaceOnUse" x="668" y="218" width="132" height="89">
        <path d="M799.789 246.747L683.616 218.058L668.736 278.311L784.91 307L799.789 246.747Z" fill="white"/>
    </mask>
    <g mask="url(#mask2_2653_1755)">
        <path d="M738.763 271.704C739.407 269.096 737.664 266.422 734.87 265.732C732.076 265.042 729.289 266.597 728.645 269.205L726.107 279.483C725.462 282.091 727.205 284.765 729.999 285.455C732.793 286.145 735.581 284.59 736.225 281.982L738.763 271.704Z" fill="#BBCEFF"/>
        <path d="M738.481 272.126L728.535 269.67L727.641 273.291C728.166 273.497 728.712 273.672 729.275 273.81C732.421 274.588 735.596 274.138 738.327 272.761L738.483 272.128L738.481 272.126Z" fill="#BBCEFF"/>
        <path d="M713.121 280.116C715.375 279.952 725.79 278.518 725.989 278.483L726.996 275.866C726.996 275.866 726.891 277.615 731.654 278.732C735.946 279.737 737.111 278.365 737.111 278.365L736.784 281.149C736.943 281.276 744.321 284.739 747.156 287.359C751.381 291.264 752.036 308.541 751.623 310.214C751.12 312.249 731.056 314.874 723.363 312.989C723.311 312.977 723.259 312.964 723.204 312.95C723.152 312.937 723.1 312.924 723.045 312.911C715.356 310.997 697.732 305.677 698.233 303.645C698.646 301.973 705.787 280.649 713.121 280.116Z" fill="#BBCEFF"/>
        <path d="M741.384 247.664L737.792 246.777C733.249 245.655 728.656 248.429 727.534 252.972L725.127 262.716C724.005 267.26 726.779 271.853 731.323 272.975L734.915 273.862C739.459 274.984 744.052 272.21 745.174 267.667L747.58 257.923C748.702 253.379 745.928 248.786 741.384 247.664Z" fill="#BBCEFF"/>
        <path d="M727.195 255.241L727.005 255.194C725.667 254.863 724.314 255.68 723.984 257.018L723.889 257.402C723.558 258.74 724.375 260.092 725.713 260.423L725.904 260.47L727.194 255.244L727.195 255.241Z" fill="#BBCEFF"/>
    </g>
    <path d="M726.905 251.813C727.852 250.026 732.636 244.49 735.371 243.865C746.776 241.259 754.402 257.159 743.85 273.647C749.264 251.724 725.958 253.601 726.905 251.813Z" fill="white"/>
    <path d="M704.65 238.56C708.302 239.462 711.995 237.232 712.897 233.579C713.799 229.926 711.569 226.234 707.916 225.332C704.263 224.43 700.571 226.66 699.669 230.313C698.767 233.965 700.997 237.658 704.65 238.56Z" fill="#BBCEFF"/>
    <path d="M705.569 234.812C707.172 235.208 708.788 234.244 709.18 232.661C709.571 231.077 708.589 229.472 706.986 229.076C705.383 228.68 703.767 229.643 703.375 231.227C702.984 232.811 703.966 234.416 705.569 234.812Z" fill="white"/>
</svg>